<svg width="14" height="14" viewBox="0 0 14 14" fill="none" xmlns="http://www.w3.org/2000/svg">
<g id="settings">
<mask id="mask0_76_40" style="mask-type:alpha" maskUnits="userSpaceOnUse" x="0" y="0" width="14" height="14">
<rect id="Bounding box" width="14" height="14" fill="#D9D9D9"/>
</mask>
<g mask="url(#mask0_76_40)">
<path id="settings_2" d="M5.39578 12.8333L5.16245 10.9667C5.03606 10.918 4.91696 10.8597 4.80516 10.7917C4.69335 10.7236 4.58398 10.6507 4.47703 10.5729L2.74162 11.3021L1.13745 8.53124L2.63953 7.39374C2.62981 7.32568 2.62495 7.26006 2.62495 7.19687V6.80312C2.62495 6.73992 2.62981 6.6743 2.63953 6.60624L1.13745 5.46874L2.74162 2.69791L4.47703 3.42707C4.58398 3.3493 4.69578 3.27638 4.81245 3.20832C4.92912 3.14027 5.04578 3.08193 5.16245 3.03332L5.39578 1.16666H8.60412L8.83745 3.03332C8.96384 3.08193 9.08294 3.14027 9.19474 3.20832C9.30655 3.27638 9.41592 3.3493 9.52287 3.42707L11.2583 2.69791L12.8625 5.46874L11.3604 6.60624C11.3701 6.6743 11.375 6.73992 11.375 6.80312V7.19687C11.375 7.26006 11.3652 7.32568 11.3458 7.39374L12.8479 8.53124L11.2437 11.3021L9.52287 10.5729C9.41592 10.6507 9.30412 10.7236 9.18745 10.7917C9.07078 10.8597 8.95412 10.918 8.83745 10.9667L8.60412 12.8333H5.39578ZM7.02912 9.04166C7.59301 9.04166 8.07426 8.84235 8.47287 8.44374C8.87148 8.04513 9.07078 7.56388 9.07078 6.99999C9.07078 6.4361 8.87148 5.95485 8.47287 5.55624C8.07426 5.15763 7.59301 4.95832 7.02912 4.95832C6.45551 4.95832 5.97183 5.15763 5.57808 5.55624C5.18433 5.95485 4.98745 6.4361 4.98745 6.99999C4.98745 7.56388 5.18433 8.04513 5.57808 8.44374C5.97183 8.84235 6.45551 9.04166 7.02912 9.04166ZM7.02912 7.87499C6.78606 7.87499 6.57947 7.78992 6.40933 7.61978C6.23919 7.44964 6.15412 7.24305 6.15412 6.99999C6.15412 6.75693 6.23919 6.55034 6.40933 6.3802C6.57947 6.21006 6.78606 6.12499 7.02912 6.12499C7.27217 6.12499 7.47877 6.21006 7.64891 6.3802C7.81905 6.55034 7.90412 6.75693 7.90412 6.99999C7.90412 7.24305 7.81905 7.44964 7.64891 7.61978C7.47877 7.78992 7.27217 7.87499 7.02912 7.87499ZM6.41662 11.6667H7.5687L7.77287 10.1208C8.07426 10.043 8.35377 9.92881 8.61141 9.77812C8.86905 9.62742 9.10481 9.44513 9.3187 9.23124L10.7625 9.82916L11.3312 8.83749L10.077 7.88957C10.1256 7.75346 10.1597 7.61006 10.1791 7.45937C10.1986 7.30867 10.2083 7.15555 10.2083 6.99999C10.2083 6.84443 10.1986 6.69131 10.1791 6.54062C10.1597 6.38992 10.1256 6.24652 10.077 6.11041L11.3312 5.16249L10.7625 4.17082L9.3187 4.78332C9.10481 4.55971 8.86905 4.37256 8.61141 4.22187C8.35377 4.07117 8.07426 3.95693 7.77287 3.87916L7.58328 2.33332H6.4312L6.22703 3.87916C5.92565 3.95693 5.64613 4.07117 5.38849 4.22187C5.13085 4.37256 4.89509 4.55485 4.6812 4.76874L3.23745 4.17082L2.6687 5.16249L3.92287 6.09582C3.87426 6.24166 3.84023 6.38749 3.82078 6.53332C3.80134 6.67916 3.79162 6.83471 3.79162 6.99999C3.79162 7.15555 3.80134 7.30624 3.82078 7.45207C3.84023 7.59791 3.87426 7.74374 3.92287 7.88957L2.6687 8.83749L3.23745 9.82916L4.6812 9.21666C4.89509 9.44027 5.13085 9.62742 5.38849 9.77812C5.64613 9.92881 5.92565 10.043 6.22703 10.1208L6.41662 11.6667Z" fill="#535353"/>
</g>
</g>
</svg>
